<?xml version="1.0" encoding="UTF-8" standalone="no"?>
<!-- Created with Inkscape (http://www.inkscape.org/) -->

<svg
   width="100mm"
   height="84mm"
   viewBox="0 0 100 84"
   version="1.1"
   id="svg1"
   xmlns="http://www.w3.org/2000/svg"
   xmlns:svg="http://www.w3.org/2000/svg">
  <defs
     id="defs1" />
  <g
     id="layer1">
    <path
       style="fill:#292929;fill-opacity:1;stroke-width:0.310004"
       d="M 49.563133,22.591052 32.539658,14.853109 15.051906,21.043463 14.742388,43.947776 49.563133,74.744791 83.919602,44.56681 V 21.972015 l -16.40444,-6.65463 z"
       id="path73" />
    <path
       style="fill:#292929;fill-opacity:1;stroke-width:0.155002"
       d="m 32.198653,59.282024 -17.364477,-15.334249 0.08962,-7.737943 c 0.04929,-4.255869 0.133099,-9.400375 0.186244,-11.432237 l 0.09663,-3.694292 8.659221,-3.065013 8.65922,-3.065015 8.489368,3.857578 c 4.669152,2.121668 8.513486,3.857578 8.542968,3.857578 0.02946,0 3.768638,-1.505046 8.309245,-3.344546 4.540604,-1.839501 8.57298,-3.469753 8.960829,-3.622782 l 0.705181,-0.278235 8.116075,3.290999 8.116072,3.290997 0.02975,11.280972 0.02975,11.280975 -15.701427,13.77354 C 59.487136,65.915797 51.778365,72.676927 50.99232,73.365081 l -1.429174,1.251194 z"
       id="path74" />
    <path
       style="fill:#292929;fill-opacity:1;stroke-width:0.155002"
       d="M 36.021732,62.644761 C 28.573962,56.058252 20.758171,49.156946 18.653308,47.308532 l -3.827023,-3.360757 0.09357,-7.737943 c 0.05146,-4.255869 0.137045,-9.400338 0.19019,-11.432153 l 0.09663,-3.694208 8.666496,-3.069194 8.666497,-3.069193 8.511737,3.867959 8.511738,3.86796 3.868972,-1.56664 c 2.127934,-0.861652 6.170592,-2.496939 8.983687,-3.633973 l 5.114716,-2.067332 8.117168,3.293015 8.117167,3.293015 0.03257,11.283861 0.03257,11.283862 -15.789936,13.850919 c -8.68447,7.618005 -16.39451,14.380024 -17.133431,15.026711 l -1.343487,1.175793 z"
       id="path75" />
    <path
       style="fill:#292929;fill-opacity:1;stroke-width:0.155002"
       d="M 32.230139,59.305254 14.897147,43.974945 14.958807,35.9139 c 0.02878,-3.76217 0.07748,-8.63682 0.154758,-11.448553 l 0.0931,-3.387508 8.662567,-3.06766 8.662568,-3.06766 8.515665,3.867287 8.515669,3.867287 8.988067,-3.63726 8.988064,-3.63726 8.112791,3.297922 8.112788,3.29792 0.03384,11.284197 0.03384,11.284199 -3.206396,2.80589 c -3.550695,3.107183 -30.262481,26.546531 -30.753475,26.985891 -0.303312,0.271417 -0.6571,-0.03046 -17.642512,-15.053338 z"
       id="path76" />
    <ellipse
       style="fill:#292929;fill-opacity:1;stroke-width:0.293811"
       id="path78"
       cx="26.182262"
       cy="32.641312"
       rx="15.484492"
       ry="16.797665" />
    <ellipse
       style="fill:#292929;fill-opacity:1;stroke-width:0.293811"
       id="path78-2"
       cx="73.40461"
       cy="32.579327"
       rx="15.484492"
       ry="16.797665" />
    <ellipse
       style="fill:#292929;fill-opacity:1;stroke-width:0.314706"
       id="path79"
       cx="32.075378"
       cy="26.769543"
       rx="18.261549"
       ry="12.690228" />
    <ellipse
       style="fill:#292929;fill-opacity:1;stroke-width:0.322622"
       id="path79-8"
       cx="68.391998"
       cy="27.74209"
       rx="19.191711"
       ry="12.690228" />
    <path
       style="fill:#292929;fill-opacity:1;stroke-width:0.310004"
       d="m 51.574998,21.662499 -1.199381,0.928553 -1.470209,-0.773794 -0.696415,0.154757 c 0,0 0.812484,1.199383 0.967243,1.238073 0.154759,0.03869 2.166624,-0.232139 2.166624,-0.232139 l 0.541656,-0.812484 z"
       id="path81" />
    <path
       style="fill:#292929;fill-opacity:1;stroke-width:0.310004"
       d="m 44.840251,17.703977 5.14326,4.650819 6.128139,-4.377243 c 0,0 -2.571628,5.197976 -2.626345,5.416838 -0.05471,0.218862 -9.794079,-1.805613 -9.794079,-1.805613 z"
       id="path82" />
    <ellipse
       style="fill:#292929;fill-opacity:1;stroke-width:0.330883"
       id="path83"
       cx="31.817955"
       cy="30.069687"
       rx="19.697588"
       ry="17.290106" />
    <ellipse
       style="fill:#292929;fill-opacity:1;stroke-width:0.340514"
       id="path83-1"
       cx="68.993362"
       cy="30.605564"
       rx="20.40889"
       ry="17.673113" />
    <path
       style="fill:#292929;fill-opacity:1;stroke-width:0.264999"
       d="m 52.051574,20.752226 -0.32448,0.359561 0.152008,0.0088 z"
       id="path88" />
  </g>
</svg>
