<?xml version="1.0" encoding="UTF-8" standalone="no"?>
<!-- Created with Inkscape (http://www.inkscape.org/) -->

<svg
   width="148.80952"
   height="125"
   viewBox="0 0 39.37252 33.072917"
   version="1.1"
   id="svg1"
   inkscape:export-filename="black_heart.svg"
   inkscape:export-xdpi="96"
   inkscape:export-ydpi="96"
   sodipodi:docname="green_heart.svg"
   inkscape:version="1.4 (86a8ad7, 2024-10-11)"
   xmlns:inkscape="http://www.inkscape.org/namespaces/inkscape"
   xmlns:sodipodi="http://sodipodi.sourceforge.net/DTD/sodipodi-0.dtd"
   xmlns="http://www.w3.org/2000/svg"
   xmlns:svg="http://www.w3.org/2000/svg">
  <sodipodi:namedview
     id="namedview1"
     pagecolor="#ffffff"
     bordercolor="#000000"
     borderopacity="0.25"
     inkscape:showpageshadow="2"
     inkscape:pageopacity="0.0"
     inkscape:pagecheckerboard="0"
     inkscape:deskcolor="#d1d1d1"
     inkscape:document-units="mm"
     inkscape:zoom="3.4433224"
     inkscape:cx="56.340934"
     inkscape:cy="42.836535"
     inkscape:window-width="1920"
     inkscape:window-height="991"
     inkscape:window-x="-9"
     inkscape:window-y="-9"
     inkscape:window-maximized="1"
     inkscape:current-layer="layer1">
    <inkscape:page
       x="0"
       y="0"
       width="39.37252"
       height="33.072918"
       id="page2"
       margin="0"
       bleed="0" />
  </sodipodi:namedview>
  <defs
     id="defs1" />
  <g
     inkscape:label="Capa 1"
     inkscape:groupmode="layer"
     id="layer1">
    <path
       id="path73"
       style="fill:#d0fd68;fill-opacity:1;stroke-width:0.153329"
       d="M 10.654276,0.2031848 A 9.7534338,9.183122 0 0 0 2.367398,4.5627029 7.6672824,8.9215762 0 0 0 0.19640893,10.752167 7.6672824,8.9215762 0 0 0 2.1995823,16.74601 l -2.467e-4,0.01118 0.052068,0.04949 a 7.6672824,8.9215762 0 0 0 1.6559432,1.570799 L 19.441141,33.114168 34.939394,18.512201 A 7.6672824,8.9215762 0 0 0 38.835923,11.98444 10.105642,9.3865442 0 0 0 39.16785,9.6708687 10.105642,9.3865442 0 0 0 29.06215,0.28449445 10.105642,9.3865442 0 0 0 20.655088,4.4788327 L 20.673098,4.4375377 20.515401,4.6252192 19.649178,5.2888477 19.035416,4.693513 A 9.7534338,9.183122 0 0 0 10.654269,0.20322727 Z" />
  </g>
</svg>
