<?xml version="1.0" encoding="UTF-8" standalone="no"?>
<!-- Created with Inkscape (http://www.inkscape.org/) -->

<svg
   width="100mm"
   height="84mm"
   viewBox="0 0 100 84"
   version="1.1"
   id="svg1"
   inkscape:export-filename="black_heart.svg"
   inkscape:export-xdpi="96"
   inkscape:export-ydpi="96"
   xmlns:inkscape="http://www.inkscape.org/namespaces/inkscape"
   xmlns:sodipodi="http://sodipodi.sourceforge.net/DTD/sodipodi-0.dtd"
   xmlns="http://www.w3.org/2000/svg"
   xmlns:svg="http://www.w3.org/2000/svg">
  <sodipodi:namedview
     id="namedview1"
     pagecolor="#ffffff"
     bordercolor="#000000"
     borderopacity="0.25"
     inkscape:showpageshadow="2"
     inkscape:pageopacity="0.0"
     inkscape:pagecheckerboard="0"
     inkscape:deskcolor="#d1d1d1"
     inkscape:document-units="mm">
    <inkscape:page
       x="0"
       y="0"
       width="100"
       height="84"
       id="page2"
       margin="0"
       bleed="0" />
  </sodipodi:namedview>
  <defs
     id="defs1" />
  <g
     inkscape:label="Capa 1"
     inkscape:groupmode="layer"
     id="layer1">
    <path
       style="fill:#292929;fill-opacity:1;stroke-width:0.310004"
       d="M 49.563133,22.591052 32.539658,14.853109 15.051906,21.043463 14.742388,43.947776 49.563133,74.744791 83.919602,44.56681 V 21.972015 l -16.40444,-6.65463 z"
       id="path73" />
    <path
       style="fill:#292929;fill-opacity:1;stroke-width:0.155002"
       d="m 32.198653,59.282024 -17.364477,-15.334249 0.08962,-7.737943 c 0.04929,-4.255869 0.133099,-9.400375 0.186244,-11.432237 l 0.09663,-3.694292 8.659221,-3.065013 8.65922,-3.065015 8.489368,3.857578 c 4.669152,2.121668 8.513486,3.857578 8.542968,3.857578 0.02946,0 3.768638,-1.505046 8.309245,-3.344546 4.540604,-1.839501 8.57298,-3.469753 8.960829,-3.622782 l 0.705181,-0.278235 8.116075,3.290999 8.116072,3.290997 0.02975,11.280972 0.02975,11.280975 -15.701427,13.77354 C 59.487136,65.915797 51.778365,72.676927 50.99232,73.365081 l -1.429174,1.251194 z"
       id="path74" />
    <path
       style="fill:#292929;fill-opacity:1;stroke-width:0.155002"
       d="M 36.021732,62.644761 C 28.573962,56.058252 20.758171,49.156946 18.653308,47.308532 l -3.827023,-3.360757 0.09357,-7.737943 c 0.05146,-4.255869 0.137045,-9.400338 0.19019,-11.432153 l 0.09663,-3.694208 8.666496,-3.069194 8.666497,-3.069193 8.511737,3.867959 8.511738,3.86796 3.868972,-1.56664 c 2.127934,-0.861652 6.170592,-2.496939 8.983687,-3.633973 l 5.114716,-2.067332 8.117168,3.293015 8.117167,3.293015 0.03257,11.283861 0.03257,11.283862 -15.789936,13.850919 c -8.68447,7.618005 -16.39451,14.380024 -17.133431,15.026711 l -1.343487,1.175793 z"
       id="path75" />
    <path
       style="fill:#292929;fill-opacity:1;stroke-width:0.155002"
       d="M 32.230139,59.305254 14.897147,43.974945 14.958807,35.9139 c 0.02878,-3.76217 0.07748,-8.63682 0.154758,-11.448553 l 0.0931,-3.387508 8.662567,-3.06766 8.662568,-3.06766 8.515665,3.867287 8.515669,3.867287 8.988067,-3.63726 8.988064,-3.63726 8.112791,3.297922 8.112788,3.29792 0.03384,11.284197 0.03384,11.284199 -3.206396,2.80589 c -3.550695,3.107183 -30.262481,26.546531 -30.753475,26.985891 -0.303312,0.271417 -0.6571,-0.03046 -17.642512,-15.053338 z"
       id="path76"
       sodipodi:nodetypes="scsscccccccccccsss" />
    <ellipse
       style="fill:#292929;fill-opacity:1;stroke-width:0.293811"
       id="path78"
       cx="26.182262"
       cy="32.641312"
       rx="15.484492"
       ry="16.797665" />
    <ellipse
       style="fill:#292929;fill-opacity:1;stroke-width:0.293811"
       id="path78-2"
       cx="73.40461"
       cy="32.579327"
       rx="15.484492"
       ry="16.797665" />
    <ellipse
       style="fill:#292929;fill-opacity:1;stroke-width:0.314706"
       id="path79"
       cx="32.075378"
       cy="26.769543"
       rx="18.261549"
       ry="12.690228" />
    <ellipse
       style="fill:#292929;fill-opacity:1;stroke-width:0.322622"
       id="path79-8"
       cx="68.391998"
       cy="27.74209"
       rx="19.191711"
       ry="12.690228" />
    <path
       style="fill:#292929;fill-opacity:1;stroke-width:0.310004"
       d="m 51.574998,21.662499 -1.199381,0.928553 -1.470209,-0.773794 -0.696415,0.154757 c 0,0 0.812484,1.199383 0.967243,1.238073 0.154759,0.03869 2.166624,-0.232139 2.166624,-0.232139 l 0.541656,-0.812484 z"
       id="path81" />
    <path
       style="fill:#292929;fill-opacity:1;stroke-width:0.310004"
       d="m 44.840251,17.703977 5.14326,4.650819 6.128139,-4.377243 c 0,0 -2.571628,5.197976 -2.626345,5.416838 -0.05471,0.218862 -9.794079,-1.805613 -9.794079,-1.805613 z"
       id="path82" />
    <ellipse
       style="fill:#292929;fill-opacity:1;stroke-width:0.330883"
       id="path83"
       cx="31.817955"
       cy="30.069687"
       rx="19.697588"
       ry="17.290106" />
    <ellipse
       style="fill:#292929;fill-opacity:1;stroke-width:0.340514"
       id="path83-1"
       cx="68.993362"
       cy="30.605564"
       rx="20.40889"
       ry="17.673113" />
    <path
       style="fill:#292929;fill-opacity:1;stroke-width:0.264999"
       d="m 52.051574,20.752226 -0.32448,0.359561 0.152008,0.0088 z"
       id="path88" />
    <path
       style="fill:#292929;fill-opacity:1;stroke-width:0.70822"
       d="M 174.52896,270.67915 C 167.59813,264.56089 141.56278,241.55826 116.67262,219.5622 91.78246,197.56613 69.137604,177.75556 66.350715,175.53869 51.922347,164.06149 43.368135,148.69908 41.222476,130.41119 39.479669,115.5569 43.73112,98.291212 52.155782,86.009646 68.997706,61.457303 92.023733,48.901478 120.20815,48.901478 c 13.82538,0 25.22609,2.622965 36.6041,8.421509 10.28511,5.241575 16.97776,10.828027 27.48139,22.939112 l 3.9814,4.590714 2.68297,-1.414213 c 1.47563,-0.777818 4.29787,-3.149413 6.27164,-5.270211 10.07987,-10.830734 16.47822,-15.699782 27.47826,-20.910547 31.72191,-15.026812 72.37756,-8.065364 95.16564,16.295172 15.691,16.773724 20.66435,35.714726 15.40659,58.675956 -2.5028,10.92999 -3.64884,14.4546 -6.66759,20.50609 -4.8417,9.70579 -10.24115,16.10191 -19.60689,23.22609 -3.11127,2.36663 -31.43089,26.918 -62.9325,54.55859 -31.50161,27.6406 -57.65073,50.4869 -58.10917,50.76957 -0.51143,0.31535 -5.70293,-3.78458 -13.43503,-10.61016 z"
       id="path89"
       transform="scale(0.26458333)" />
    <path
       style="fill:#d0fd68;fill-opacity:1;stroke-width:0.321426"
       d="M 49.791598,22.209433 32.140891,14.186384 14.008802,20.604822 13.687879,44.353047 49.791598,76.284781 85.413936,44.99489 V 21.567587 l -17.008865,-6.89982 z"
       id="path73-7" />
    <path
       style="fill:#d0fd68;fill-opacity:1;stroke-width:0.160713"
       d="m 31.787322,60.252287 -18.004273,-15.899241 0.09292,-8.023048 c 0.05111,-4.412677 0.138003,-9.746733 0.193107,-11.853459 l 0.10019,-3.830409 8.978271,-3.177943 8.978269,-3.177946 8.80216,3.999711 c 4.841187,2.199841 8.827166,3.999711 8.857735,3.999711 0.03054,0 3.907493,-1.5605 8.6154,-3.467777 4.707902,-1.907277 8.888852,-3.597596 9.290991,-3.756263 l 0.731164,-0.288487 8.415108,3.412256 8.415118,3.412254 0.0309,11.696621 0.03079,11.696624 L 69.03522,59.275918 C 60.08125,67.130482 52.088449,74.140726 51.273442,74.854236 L 49.79161,76.15153 Z"
       id="path74-9" />
    <path
       style="fill:#d0fd68;fill-opacity:1;stroke-width:0.160713"
       d="M 35.751263,63.738924 C 28.029079,56.909735 19.925314,49.75415 17.742898,47.837631 l -3.96803,-3.484585 0.09702,-8.023048 c 0.05336,-4.412677 0.142094,-9.746695 0.197197,-11.853372 l 0.10019,-3.830321 8.985814,-3.182279 8.985815,-3.182278 8.825353,4.010474 8.825353,4.010476 4.011525,-1.624363 c 2.206338,-0.8934 6.397948,-2.588939 9.314692,-3.767867 l 5.303168,-2.143503 8.416243,3.414346 8.416248,3.414347 0.0338,11.699616 0.0338,11.699617 -16.371718,14.361257 C 59.944918,67.254839 51.950801,74.266005 51.184654,74.93652 l -1.392988,1.219115 z"
       id="path75-3" />
    <path
       style="fill:#d0fd68;fill-opacity:1;stroke-width:0.160713"
       d="M 31.819968,60.276373 13.84834,44.381217 13.91227,36.023162 c 0.02984,-3.900787 0.08033,-8.955044 0.16046,-11.870376 l 0.09653,-3.512321 8.981741,-3.180688 8.981741,-3.180688 8.829425,4.009777 8.82943,4.009778 9.319233,-3.771275 9.31923,-3.771276 8.411705,3.419435 8.411706,3.419432 0.03505,11.699964 0.03504,11.699967 -3.32454,2.909273 c -3.681433,3.221667 -31.377417,27.52464 -31.886502,27.980189 -0.314487,0.281417 -0.681311,-0.03158 -18.292553,-15.60798 z"
       id="path76-1"
       sodipodi:nodetypes="scsscccccccccccsss" />
    <ellipse
       style="fill:#d0fd68;fill-opacity:1;stroke-width:0.304636"
       id="path78-9"
       cx="25.549259"
       cy="32.629993"
       rx="16.055019"
       ry="17.416576" />
    <ellipse
       style="fill:#d0fd68;fill-opacity:1;stroke-width:0.304636"
       id="path78-2-8"
       cx="74.511513"
       cy="32.565723"
       rx="16.055019"
       ry="17.416576" />
    <ellipse
       style="fill:#d0fd68;fill-opacity:1;stroke-width:0.326301"
       id="path79-6"
       cx="31.659508"
       cy="26.54188"
       rx="18.934397"
       ry="13.157802" />
    <ellipse
       style="fill:#d0fd68;fill-opacity:1;stroke-width:0.334509"
       id="path79-8-5"
       cx="69.314217"
       cy="27.550259"
       rx="19.898832"
       ry="13.157802" />
    <path
       style="fill:#d0fd68;fill-opacity:1;stroke-width:0.321426"
       d="m 51.87759,21.246667 -1.243572,0.962766 -1.524379,-0.802305 -0.722074,0.160459 c 0,0 0.84242,1.243574 1.002881,1.28369 0.160461,0.04012 2.246453,-0.240692 2.246453,-0.240692 l 0.561614,-0.84242 z"
       id="path81-0" />
    <path
       style="fill:#d0fd68;fill-opacity:1;stroke-width:0.321426"
       d="m 44.894701,17.142293 5.332764,4.822179 6.353931,-4.538523 c 0,0 -2.66638,5.389496 -2.723113,5.616422 C 53.801553,23.269297 43.70334,21.17023 43.70334,21.17023 Z"
       id="path82-2" />
    <ellipse
       style="fill:#d0fd68;fill-opacity:1;stroke-width:0.343074"
       id="path83-8"
       cx="31.392599"
       cy="29.963619"
       rx="20.423347"
       ry="17.927162" />
    <ellipse
       style="fill:#d0fd68;fill-opacity:1;stroke-width:0.35306"
       id="path83-1-6"
       cx="69.937737"
       cy="30.519239"
       rx="21.160858"
       ry="18.32428" />
    <path
       style="fill:#d0fd68;fill-opacity:1;stroke-width:0.274763"
       d="m 52.371726,20.302855 -0.336436,0.372809 0.157609,0.0091 z"
       id="path88-0" />
    <path
       style="fill:#d0fd68;fill-opacity:1;stroke-width:0.194287"
       d="M 46.281172,73.041944 C 44.379824,71.36351 37.237497,65.053155 30.409331,59.018933 23.581166,52.984709 17.368958,47.550037 16.604426,46.941878 12.646264,43.793316 10.299572,39.578917 9.7109484,34.561964 9.2328404,30.486958 10.399149,25.750429 12.710302,22.381204 17.330581,15.645712 23.647355,12.201248 31.379241,12.201248 c 3.792743,0 6.920322,0.719563 10.041672,2.310289 2.821535,1.437931 4.657543,2.970473 7.539023,6.29293 l 1.092225,1.25938 0.736025,-0.387964 c 0.404812,-0.21338 1.179043,-0.863985 1.720511,-1.445787 2.76523,-2.971216 4.520502,-4.306952 7.538164,-5.73643 8.702333,-4.122335 19.855476,-2.212587 26.106978,4.470285 4.304535,4.601568 5.668888,9.79769 4.226512,16.096688 -0.686599,2.998445 -1.000991,3.965358 -1.82913,5.625476 -1.328229,2.662608 -2.809477,4.417268 -5.378799,6.371658 -0.853521,0.649242 -8.622493,7.384466 -17.264391,14.967162 -8.641898,7.5827 -15.815436,13.85017 -15.941201,13.927715 -0.140301,0.08651 -1.564495,-1.038231 -3.685658,-2.910706 z"
       id="path89-2" />
  </g>
</svg>
