<?xml version="1.0" encoding="UTF-8" standalone="no"?>
<!-- Created with Inkscape (http://www.inkscape.org/) -->

<svg
   width="150"
   height="125"
   viewBox="0 0 39.6875 33.072917"
   version="1.1"
   id="svg1"
   sodipodi:docname="white_heart.svg"
   inkscape:version="1.4 (86a8ad7, 2024-10-11)"
   xmlns:inkscape="http://www.inkscape.org/namespaces/inkscape"
   xmlns:sodipodi="http://sodipodi.sourceforge.net/DTD/sodipodi-0.dtd"
   xmlns="http://www.w3.org/2000/svg"
   xmlns:svg="http://www.w3.org/2000/svg">
  <sodipodi:namedview
     id="namedview1"
     pagecolor="#ffffff"
     bordercolor="#000000"
     borderopacity="0.25"
     inkscape:showpageshadow="2"
     inkscape:pageopacity="0.0"
     inkscape:pagecheckerboard="0"
     inkscape:deskcolor="#d1d1d1"
     inkscape:document-units="mm"
     inkscape:zoom="3.4433224"
     inkscape:cx="51.403842"
     inkscape:cy="51.258633"
     inkscape:window-width="1920"
     inkscape:window-height="991"
     inkscape:window-x="-9"
     inkscape:window-y="-9"
     inkscape:window-maximized="1"
     inkscape:current-layer="svg1" />
  <defs
     id="defs1" />
  <g
     id="layer1"
     transform="matrix(0.50031375,0,0,0.52883475,-5.2921466,-6.628213)">
    <path
       id="path73"
       style="fill:#f5f5f5;fill-opacity:1;stroke-width:0.310004"
       d="m 31.818213,12.779582 a 19.697588,17.290106 0 0 0 -16.73748,8.209318 15.484492,16.797665 0 0 0 -4.383195,11.652518 15.484492,16.797665 0 0 0 4.045231,11.2851 l -5.16e-4,0.02119 0.107487,0.09508 a 15.484492,16.797665 0 0 0 3.340364,2.954341 L 49.563383,74.744792 80.864832,47.249829 a 15.484492,16.797665 0 0 0 7.86722,-12.288655 20.40889,17.673113 0 0 0 0.670243,-4.355807 20.40889,17.673113 0 0 0 -20.40909,-17.672823 20.40889,17.673113 0 0 0 -16.978292,7.897709 l 0.03669,-0.07803 -0.318327,0.35295 -1.749764,1.249536 -1.238684,-1.120345 A 19.697588,17.290106 0 0 0 31.818213,12.779582 Z" />
  </g>
</svg>
